<?xml version="1.0" encoding="UTF-8" standalone="no"?>
<!-- Created with Inkscape (http://www.inkscape.org/) -->

<svg
   width="16"
   height="16"
   viewBox="0 0 16 16"
   version="1.1"
   id="svg1"
   xmlns="http://www.w3.org/2000/svg"
   xmlns:svg="http://www.w3.org/2000/svg">
  <defs
     id="defs1" />
  <path
     style="fill:#ff5656;fill-opacity:1"
     id="path1"
     d="M 7.8821958,2.8273097 C 6.6856633,4.6553455 -8.577741,10.451366 -10.686055,9.8782901 -12.794369,9.3052142 -23.023364,-3.4200771 -23.129841,-5.6022933 -23.236318,-7.7845094 -14.29478,-21.445192 -12.252273,-22.2208 c 2.042508,-0.775608 17.7976766,3.506917 19.1664931,5.209781 1.3688164,1.702864 2.1645082,18.01029297 0.9679757,19.8383287 z"
     transform="matrix(0.50516767,0,0,0.49495599,11.729508,11.134843)" />
  <g
     id="layer1">
    <path
       style="fill:#000000"
       id="path2"
       d="m 3.0248719,13.708768 c -0.098225,-0.206389 -0.1295286,-0.430661 -0.1585516,-0.654872 -0.047453,-0.448553 -0.059057,-0.901759 0.01556,-1.348283 0.019603,-0.117306 0.048591,-0.23285 0.072887,-0.349275 0.034122,-0.125139 0.062359,-0.252033 0.1023651,-0.375417 C 3.2465176,10.396832 3.5571102,9.8518398 3.9799364,9.404326 4.1109481,9.265665 4.2586412,9.1437739 4.3979936,9.0134978 4.5667454,8.8885898 4.7300558,8.7559741 4.904249,8.6387739 5.7139443,8.0939966 6.619241,7.7099561 7.5428306,7.4053012 7.7894438,7.3239535 8.0397258,7.2541815 8.2881735,7.1786216 8.940261,7.0109405 9.1233584,6.9522996 9.7817028,6.8284086 10.011119,6.7852357 10.242496,6.7532202 10.472892,6.715626 c 0,0 -1.2012598,-0.8391785 -1.2012598,-0.8391785 v 0 C 8.5528496,6.0297056 7.8326361,6.1797368 7.1265972,6.3860712 6.8758134,6.4625749 6.6233657,6.5338226 6.3742459,6.6155823 5.2169614,6.9953967 4.0873486,7.483668 3.1010073,8.2079605 2.9472471,8.3375789 2.7846905,8.4574291 2.6397268,8.5968159 2.2830003,8.9398187 1.9922657,9.3562088 1.7763176,9.8002624 1.6304102,10.100292 1.590696,10.253549 1.487413,10.565388 1.411134,10.85611 1.3762056,10.957799 1.3305855,11.250605 c -0.05178,0.332345 -0.062053,0.669443 -0.058332,1.005118 0.0023,0.218435 0.0051,0.439623 0.060941,0.652306 z" />
    <path
       style="fill:#000000"
       id="path3"
       d="m 14.476655,13.205155 c -0.0049,-0.02358 -0.0083,-0.04754 -0.01478,-0.07075 -0.03785,-0.135863 -0.100083,-0.267662 -0.158923,-0.395067 -0.07802,-0.168939 -0.159424,-0.336298 -0.238754,-0.504626 -0.270216,-0.548151 -0.54119,-1.096815 -0.84012,-1.630095 C 12.98026,10.169646 12.873619,10.005163 12.610754,9.5761211 12.081443,8.7377406 11.472674,7.9499964 10.779276,7.2405755 10.656182,7.1146369 10.526912,6.9948861 10.400729,6.8720414 10.00194,6.50203 9.5791011,6.1508778 9.1065878,5.8777028 7.4382576,4.9131881 7.9631596,5.1628342 7.1120526,4.7736747 6.8937296,4.6828924 6.6670637,4.6166421 6.4344495,4.5751214 c -0.061833,-0.011037 -0.1242794,-0.0183 -0.186419,-0.02745 0,0 1.4222979,1.0676684 1.4222979,1.0676684 v 0 c 0.056544,0.00953 0.1134599,0.017061 0.1696327,0.028577 C 8.05088,5.687155 8.2559272,5.7540136 8.453342,5.8398225 9.1075856,6.1456143 8.7532039,5.9896413 7.5535974,5.2775895 7.4465648,5.214058 7.770414,5.4000612 7.8759955,5.4659761 c 0.3834836,0.2394102 0.7442855,0.5134931 1.082589,0.8131942 0.1326509,0.1225851 0.268908,0.2413796 0.3979528,0.3677553 0.1352118,0.1324149 0.2655777,0.2697593 0.3944996,0.4083056 0.5482621,0.5891923 1.0473121,1.2224405 1.4725251,1.9066005 0.10136,0.1700957 0.205594,0.3385116 0.304081,0.510287 0.377281,0.6580313 0.699523,1.3463573 0.984469,2.0489253 0.105649,0.279835 0.216555,0.559717 0.290225,0.850036 z" />
    <path
       style="fill:#000000"
       id="path4"
       d="M 8.3389024,14.601532 C 8.2280545,14.332805 8.2680367,14.056854 8.3002137,13.776823 8.4021365,13.087452 8.6150762,12.418655 8.866124,11.770194 8.9333081,11.596657 9.007063,11.425735 9.0775325,11.253505 9.4037902,10.523074 9.7802018,9.8156628 10.213688,9.1431316 10.47968,8.7304587 10.585861,8.5941651 10.871034,8.1991568 11.273993,7.6735892 11.697999,7.1636164 12.14949,6.6789063 c 0.195751,-0.2101548 0.395358,-0.4090042 0.597222,-0.6131118 0.268254,-0.2744449 0.557826,-0.5258092 0.849602,-0.7744533 0,0 -1.419777,-0.8799768 -1.419777,-0.8799768 v 0 C 11.899687,4.6765147 11.620254,4.9392442 11.355464,5.2166285 11.106157,5.4813261 11.015626,5.5724011 10.774758,5.8489002 10.338165,6.3500775 9.9303136,6.8760015 9.5450997,7.4175066 9.4373748,7.5738277 9.3271702,7.7284687 9.2219251,7.88647 8.6660088,8.7210498 8.1715275,9.5959091 7.7315866,10.496743 c -0.078104,0.169952 -0.158495,0.338871 -0.2343111,0.509856 -0.2818146,0.635565 -0.5408011,1.284019 -0.7337362,1.952488 -0.021341,0.08648 -0.083558,0.33014 -0.1004481,0.427993 -0.02354,0.136381 -0.016868,0.272772 -0.012334,0.41017 z" />
    <path
       style="fill:#000000"
       id="path5"
       d="M 12.337765,14.369427 C 12.167883,14.225092 12.003579,14.073913 11.839861,13.922513 11.596574,13.686562 11.354727,13.448434 11.122092,13.201881 10.972053,13.042865 10.753882,12.798684 10.610509,12.639564 9.933458,11.860705 9.25022,11.087273 8.575752,10.306172 7.8556689,9.455166 7.1172056,8.6200387 6.3898434,7.775315 5.987113,7.2974312 5.5679152,6.8332794 5.1807453,6.3424118 4.9867805,6.0964964 4.9581446,6.0515385 4.7827384,5.8079992 4.6241294,5.5812844 4.4754557,5.3466024 4.3468363,5.1014028 4.3044572,5.0206114 4.2640181,4.9321099 4.2252448,4.8494427 4.1328614,4.6509899 4.0639861,4.4430082 3.9940674,4.2359429 3.9227714,4.0368477 3.8695233,3.8319682 3.8120462,3.6285995 3.7690369,3.4763845 3.722018,3.3253716 3.6740424,3.1746664 c 0,0 -1.6705867,-0.7793792 -1.6705867,-0.7793792 v 0 c 0.059923,0.1485035 0.1200029,0.2970161 0.1640385,0.4512628 0.038515,0.1383257 0.077955,0.2766221 0.1137688,0.4156761 0.0089,0.034554 0.015262,0.069771 0.025262,0.1040226 0.00946,0.032408 0.02204,0.063823 0.03306,0.095735 0.078003,0.2149445 0.14397,0.434759 0.2437856,0.6411993 0.037994,0.077916 0.094782,0.1963477 0.1354359,0.2711727 0.146491,0.2696242 0.3269032,0.5200065 0.5112839,0.7645273 0.2089672,0.2687477 0.2245881,0.2931749 0.4519089,0.5662297 0.4144392,0.4978191 0.8530037,0.9745597 1.2758941,1.465078 0.7341496,0.8415546 1.4750877,1.6772723 2.1925844,2.5331784 0.6531503,0.7598179 1.3105099,1.5164689 1.9412587,2.2951099 0.1536561,0.18167 0.3036232,0.366472 0.4591726,0.546524 0.2041898,0.236355 0.4225408,0.460367 0.6310919,0.692808 0.08766,0.09145 0.17631,0.182476 0.2673,0.270637 0.04003,0.03878 0.08519,0.07211 0.124318,0.111801 0.01332,0.01351 0.02407,0.02935 0.0361,0.04402 z" />
    <path
       style="fill:#000000"
       id="path6"
       d="m 7.5303809,5.2596757 c 0.010226,0.013142 0.017042,0.028358 0.024571,0.043087 0.00371,0.00702 0.00656,0.014714 0.011436,0.021082 0.0017,0.00222 0.00379,0.00412 0.00553,0.00631 0.00107,0.00111 0.00202,0.00236 0.00322,0.00334 0.00106,8.686e-4 0.00242,0.00132 0.00351,0.00216 0.00349,0.00268 0.00671,0.00546 0.01056,0.00769 0.054693,0.031718 0.1095362,0.063177 0.1643042,0.094766 0.00654,0.00117 0.011138,0.00615 0.017128,0.00855 0.00943,0.00377 -1.117e-4,-9.791e-4 0.00855,0.0036 0.00612,0.00117 0.010115,0.00615 0.015707,0.00841 0.00221,8.942e-4 0.00721,0.00218 0.00937,0.00278 0.0052,0.00209 0.011104,0.00164 0.016408,0.0031 0.00145,3.993e-4 0.0027,0.00131 0.00409,0.00187 0.00354,0.00141 0.00429,0.00142 0.00797,0.00221 0.00257,9.412e-4 0.00537,1.082e-4 0.00797,7.149e-4 0.00116,2.706e-4 0.00214,0.00106 0.00326,0.00146 0.00374,0.00132 0.00771,0.00166 0.01162,0.00205 0.00394,8.834e-4 0.00826,-3.559e-4 0.012181,3.875e-4 0.00118,2.241e-4 0.0022,9.834e-4 0.00335,0.00136 0.00283,9.247e-4 0.00476,0.00113 0.0077,0.00161 0.0042,-5.836e-4 0.00633,0.00241 0.010016,0.00354 0.00111,3.388e-4 0.00238,1.89e-4 0.0034,7.369e-4 0.00284,0.00296 0.00121,0.00178 0.00487,0.00356 0.00688,0.00146 -2.938e-4,-4.598e-4 0.0059,0.00242 0.00108,5.009e-4 0.00239,4.607e-4 0.00339,0.00109 9.547e-4,5.978e-4 0.0014,0.00179 0.0023,0.00247 8.864e-4,6.721e-4 0.00393,0.00208 0.00297,0.00152 -0.052516,-0.030332 -0.1050866,-0.060567 -0.15763,-0.090851 0.4344177,0.2510007 0.00824,0.0044 0.00622,0.00324 -0.00163,-9.413e-4 0.00303,0.00308 0.0049,0.00283 0.00311,-4.108e-4 0.00366,-0.00514 0.00506,-0.00795 0.00524,-0.010746 0.00337,-0.00648 -0.00246,-0.00836 -9.433e-4,-3.045e-4 -0.00169,-0.00104 -0.00253,-0.00156 -0.00112,-3.277e-4 -0.00223,-6.554e-4 -0.00335,-9.831e-4 -0.00389,-8.746e-4 -0.00787,-0.00112 -0.01183,-0.00141 0,0 0.150319,0.1120758 0.150319,0.1120758 v 0 c 0.00382,6.917e-4 0.00763,0.00147 0.011469,0.00203 0.00592,3.229e-4 0.00226,4.376e-4 0.00844,-5.883e-4 0.0079,-0.00131 0.011663,-0.00375 0.015831,-0.011434 0.00378,-0.00847 0.00721,-0.011263 -0.00113,-0.016115 -0.054443,-0.031669 -0.1117899,-0.058818 -0.1632777,-0.095094 -0.049534,-0.0349 0.1049295,0.060632 0.1573942,0.090948 -0.054555,-0.031503 -0.1091069,-0.063013 -0.1636662,-0.09451 -9.502e-4,-5.485e-4 -0.00183,-0.00124 -0.00286,-0.00163 -0.0033,-0.00122 -0.00682,-0.00195 -0.010103,-0.00331 -9.158e-4,-3.814e-4 -0.00171,-0.00101 -0.00256,-0.00151 -0.00659,-0.00266 0.00125,1.609e-4 -0.00642,-0.00138 -0.00611,-0.00123 -8e-7,-0.00115 -0.00651,-0.00189 -0.00134,-1.506e-4 -0.0027,9.04e-5 -0.00403,-5.98e-5 -0.00127,-1.43e-4 -0.0025,-5.436e-4 -0.00375,-8.153e-4 -0.00775,-0.0016 -0.015633,-0.00105 -0.02327,-0.00336 -0.00731,-0.00204 -0.01467,-0.00316 -0.021858,-0.00549 -0.00892,-0.00304 -0.01848,-0.00376 -0.026858,-0.00847 -0.00408,-0.00214 -0.00789,-0.00491 -0.012023,-0.00694 -0.00222,-0.00109 -0.00633,-0.00239 -0.0086,-0.00343 -0.00131,-5.972e-4 -0.00255,-0.00134 -0.00383,-0.00201 -0.00431,-0.00186 -0.00794,-0.00439 -0.012109,-0.00651 -0.00249,-0.00126 -0.00654,-0.00269 -0.00901,-0.00404 -0.00134,-7.29e-4 -0.00257,-0.00165 -0.00386,-0.00248 0.052106,0.030114 0.1042632,0.06014 0.1563178,0.090343 0.00118,6.854e-4 -0.00253,-0.00106 -0.00369,-0.00178 -0.00125,-7.886e-4 -0.00218,-0.00204 -0.00348,-0.00274 -0.00128,-6.889e-4 -0.00289,-6.305e-4 -0.00414,-0.00136 -0.00125,-7.303e-4 -0.00199,-0.00215 -0.00322,-0.00293 -0.00115,-7.265e-4 -0.00254,-9.99e-4 -0.00381,-0.0015 -0.0077,-0.00416 0.00109,9.956e-4 -0.00648,-0.00491 -0.00121,-9.455e-4 -0.00273,-0.00145 -0.00393,-0.00241 -0.00457,-0.00366 -0.00802,-0.0087 -0.010686,-0.01382 -0.00755,-0.014955 -0.015273,-0.029792 -0.022848,-0.044733 z" />
    <path
       style="fill:#000000"
       id="path7"
       d="m 7.8168311,5.4197173 c -0.00714,-0.00373 -0.014081,-0.00759 -0.021005,-0.011692 -0.00217,-0.00129 -0.00882,-0.00493 -0.00664,-0.00366 0.1452403,0.083867 0.2055454,0.1176596 0.147606,0.085163 -0.00962,-0.00529 -0.017597,-0.012485 -0.025856,-0.019544 -0.00904,-0.00714 -0.01824,-0.013636 -0.026239,-0.022015 -0.00818,-0.00806 -0.01725,-0.015044 -0.02629,-0.022084 -0.00337,-0.00417 -0.00847,-0.00617 -0.012583,-0.0093 -0.00369,-0.0028 -0.00695,-0.00688 -0.010205,-0.010175 -0.00292,-0.0039 -0.00673,-0.00723 -0.010624,-0.010148 -0.00191,-0.00143 -0.0045,-0.00187 -0.00629,-0.00344 -0.00105,-9.204e-4 -0.00167,-0.00223 -0.00251,-0.00335 -8.995e-4,-0.00106 -0.00164,-0.00227 -0.0027,-0.00317 -0.0018,-0.00152 -0.00417,-0.00222 -0.00616,-0.00348 -0.00364,-0.0023 -0.00686,-0.00506 -0.010111,-0.00787 -0.00823,-0.00718 -0.015486,-0.015366 -0.023569,-0.022683 -0.00601,-0.00516 -0.00308,-0.00256 -0.0088,-0.00781 0,0 -0.1735646,-0.069254 -0.1735646,-0.069254 v 0 c 0.00642,0.00407 0.00332,0.00179 0.00928,0.0069 0.0083,0.00676 0.016308,0.013653 0.023433,0.021705 0.00342,0.00352 0.010566,0.012472 0.014646,0.014526 0.00111,5.58e-4 0.00242,5.649e-4 0.00362,8.473e-4 0.00576,0.00264 0.00122,-2.172e-4 0.00539,0.00536 0.00315,0.00421 0.00273,0.00229 0.00696,0.00513 0.0081,0.00542 -8.278e-4,0.00109 0.00812,0.00496 0.00333,0.00341 0.00726,0.00676 0.010217,0.010496 0.00121,0.00153 0.00189,0.00347 0.00323,0.00489 0.00113,0.0012 0.00762,0.00522 0.00894,0.00606 0.00859,0.00747 0.017883,0.01391 0.026571,0.021241 0.00909,0.00708 0.015162,0.017384 0.025589,0.022758 0.00255,0.002 0.00534,0.0037 0.00779,0.00582 0.00603,0.00523 0.010639,0.012212 0.018143,0.015662 0.060226,0.047688 0.1319781,0.078917 0.199645,0.1149994 z" />
  </g>
</svg>
